<svg width="222" height="567" viewBox="0 0 222 567" fill="none" xmlns="http://www.w3.org/2000/svg">
<mask id="mask0_102_329" style="mask-type:alpha" maskUnits="userSpaceOnUse" x="0" y="0" width="222" height="567">
<path d="M0 0H187C206.33 0 222 15.67 222 35V532C222 551.33 206.33 567 187 567H0V0Z" fill="#949494"/>
</mask>
<g mask="url(#mask0_102_329)">
<path d="M138.972 452.204L138.966 452.198C134.368 447.468 132.696 443.227 132.648 439.465C132.6 435.67 134.2 432.089 136.688 428.694C139.179 425.295 142.468 422.206 145.613 419.403C146.13 418.942 146.647 418.485 147.158 418.035C149.674 415.815 152.034 413.732 153.469 411.91L153.476 411.902L153.483 411.893C158.128 405.817 164.689 402.755 171.535 399.56C171.713 399.477 171.892 399.393 172.071 399.31C178.997 396.075 186.188 392.611 190.75 385.392L190.758 385.381L190.765 385.369C194.19 379.722 200.649 376.583 208.271 376.66C209.97 376.915 211.79 377.214 213.483 378.198C215.876 379.681 217.494 382.261 218.305 385.066C219.118 387.88 219.046 390.668 218.348 392.443C217.509 394.206 216.197 395.618 214.647 397.141C214.451 397.334 214.251 397.529 214.047 397.727C212.678 399.058 211.165 400.529 209.97 402.313L209.963 402.322C207.928 405.409 207.023 409.338 206.568 413.415C206.21 416.623 206.119 420.067 206.031 423.414C206.007 424.322 205.983 425.223 205.954 426.111C205.817 430.332 205.565 434.254 204.703 437.512C203.847 440.751 202.44 443.131 200.139 444.518L200.123 444.527L200.108 444.536C197 446.511 192.663 446.335 187.568 445.713C186.879 445.629 186.177 445.537 185.467 445.445C183.65 445.207 181.786 444.964 179.996 444.83C177.492 444.641 174.97 444.65 172.647 445.211L172.645 445.211C169.241 446.04 166.582 447.934 164.201 449.89C163.573 450.407 162.97 450.921 162.378 451.426C160.662 452.89 159.043 454.271 157.175 455.385L157.143 455.404L157.112 455.425C152.634 458.405 145.113 458.593 138.972 452.204Z" stroke="white" stroke-width="3" stroke-miterlimit="10"/>
<path d="M223.544 423.406L223.544 423.414L223.545 423.423C223.624 425.681 223.773 428.055 223.927 430.496C224.189 434.653 224.463 439.005 224.421 443.313C224.356 450.118 223.484 456.291 220.73 460.607C218.189 464.528 214.396 466.373 209.659 467.338C205.743 468.089 201.342 467.814 196.508 467.147C194.306 466.843 192.046 466.463 189.718 466.071C189.497 466.034 189.275 465.997 189.052 465.96C186.503 465.531 183.88 465.098 181.224 464.757C176.474 464.049 171.917 463.805 167.783 464.819C162.992 465.741 159.035 467.993 155.324 470.643C153.635 471.849 151.974 473.156 150.311 474.463C150.146 474.593 149.982 474.722 149.817 474.851C147.978 476.296 146.122 477.74 144.15 479.106L144.144 479.11L144.138 479.115C133.453 486.671 118.817 483.692 107.839 471.859C104.144 467.877 101.125 463.795 98.7689 459.615C95.4031 453.293 92.4981 445.96 91.37 438.951C90.2382 431.92 90.9243 425.43 94.4536 420.552C95.1269 419.625 96.2324 418.859 97.7508 418.188C99.2647 417.52 101.048 417.006 102.957 416.498C103.277 416.412 103.602 416.327 103.929 416.241C105.507 415.826 107.141 415.396 108.624 414.882C110.408 414.264 112.156 413.465 113.462 412.268L113.471 412.26L113.479 412.252C116.125 409.748 118.598 407.284 120.972 404.92C125.34 400.571 129.37 396.557 133.517 393.242L133.529 393.233L133.54 393.223C139.139 388.556 143.823 383.082 148.357 377.782C148.877 377.174 149.395 376.569 149.912 375.967C154.977 370.076 159.978 364.526 166.126 360.344C168.844 358.502 172.54 357.824 176.693 357.166C176.916 357.131 177.14 357.096 177.366 357.06C181.148 356.466 185.262 355.819 188.565 353.986C189.912 353.416 190.832 352.726 191.771 351.585L191.787 351.566L191.802 351.546C198.193 343.229 208.411 339.913 219.646 341.166L219.668 341.169L219.69 341.17C222.706 341.417 225.829 342.285 229.206 344.432L229.475 344.603L229.658 344.63L229.741 344.69C234.359 348.041 237.736 353.413 239.628 358.944C241.532 364.513 241.83 369.942 240.644 373.349L240.635 373.375L240.627 373.401C239.666 376.524 237.833 378.865 235.675 381.158C235.154 381.712 234.604 382.273 234.041 382.846C232.343 384.574 230.536 386.414 229.101 388.523C227.966 390.141 227.035 391.64 226.294 393.423C224.362 397.873 223.63 402.891 223.396 407.993C223.212 412.006 223.335 416.161 223.454 420.186C223.487 421.271 223.519 422.346 223.544 423.406Z" stroke="white" stroke-width="3" stroke-miterlimit="10"/>
<path d="M237.271 482.187L237.265 482.196L237.258 482.204C232.781 487.967 226.275 489.702 219.147 490.137C213.499 490.456 207.448 489.563 201.049 488.281C198.778 487.826 196.448 487.319 194.083 486.803C189.866 485.885 185.536 484.942 181.217 484.226C174.879 483.058 169.025 483.083 163.726 483.869L163.707 483.872L163.687 483.876C157.32 484.992 152.001 487.861 146.975 491.341C144.465 493.077 142.006 494.983 139.529 496.906L139.392 497.012C136.951 498.907 134.486 500.821 131.88 502.658C114.174 515.038 92.8364 508.736 77.1381 491.582C71.746 485.323 66.6892 478.981 63.21 472.275L63.2057 472.267L63.2012 472.259C58.2603 463.023 52.8937 451.568 50.1628 440.479C47.4198 429.341 47.426 418.944 52.7111 411.478C53.6365 410.23 55.4095 409.293 58.0081 408.592C60.5753 407.899 63.6566 407.51 66.8968 407.143C67.2386 407.104 67.5822 407.065 67.927 407.027C70.8004 406.704 73.7519 406.373 76.3626 405.825C79.248 405.22 82.0069 404.298 83.8468 402.591L83.853 402.585L83.8591 402.58C87.4506 399.172 90.8349 395.709 94.117 392.35C95.855 390.571 97.5644 388.822 99.2607 387.126C104.192 382.195 109.074 377.648 114.469 373.84C123.548 367.511 129.612 358.006 135.385 348.707C135.598 348.363 135.811 348.02 136.024 347.677C141.63 338.638 147.052 329.896 154.81 323.797L154.817 323.792C156.235 322.664 158.238 322.036 160.768 321.77C163.289 321.505 166.169 321.614 169.217 321.823C170.12 321.885 171.042 321.957 171.97 322.028C174.126 322.195 176.318 322.365 178.394 322.428C181.365 322.518 184.284 322.401 186.79 321.697C188.534 321.237 190.249 320.466 191.561 319.018L191.599 318.976L191.634 318.931C200.95 306.94 215.777 303.177 231.087 305.245C235.627 305.924 240.223 307.239 245.353 310.724L246.233 311.322L246.29 311.28C252.899 316.289 257.891 324.143 260.813 332.16C263.806 340.371 264.513 348.429 262.853 353.501L262.847 353.519L262.841 353.538C261.408 358.34 258.695 361.806 255.579 365.19C254.936 365.888 254.27 366.589 253.593 367.3C251.041 369.982 248.343 372.817 246.212 376.27L246.202 376.286L246.193 376.302C244.989 378.362 243.694 380.904 242.837 383.548C238.797 395.704 239.854 410.396 240.791 423.425C240.893 424.845 240.994 426.245 241.087 427.619L241.088 427.63C241.303 430.511 241.627 433.615 241.965 436.856C242.622 443.147 243.332 449.956 243.411 456.652C243.531 466.791 242.166 476.076 237.271 482.187Z" stroke="white" stroke-width="3" stroke-miterlimit="10"/>
<path d="M258.991 432.274L258.991 432.274C259.28 436.008 259.731 440.097 260.207 444.407C261.11 452.584 262.1 461.553 262.23 470.375C262.428 483.837 260.58 496.295 253.696 504.276C247.549 511.307 238.023 513.078 228.539 512.959C221.182 512.823 213.505 511.308 205.59 509.471C203.687 509.03 201.767 508.569 199.836 508.105C193.795 506.655 187.644 505.179 181.533 504.182C173.324 502.515 166.177 502.339 159.496 503.367L159.492 503.368C146.031 505.48 135.756 513.551 124.647 522.278C122.975 523.591 121.285 524.919 119.562 526.244L119.56 526.246C107.714 535.383 94.6726 537.236 82.0365 534.052C69.349 530.856 57.0227 522.562 46.8318 511.332L46.8262 511.326L46.8206 511.32C39.3548 503.272 32.8809 494.522 27.9905 485.382C21.5821 473.385 13.7605 457.834 9.42033 442.687C5.0565 427.458 4.35112 413.114 11.5168 403.138L11.5188 403.135C12.7606 401.398 15.272 400.219 18.9387 399.459C22.5468 398.711 26.9045 398.437 31.439 398.208C31.9089 398.185 32.3808 398.161 32.8537 398.138C36.8899 397.939 40.9996 397.737 44.5977 397.203C48.5579 396.616 52.2607 395.585 54.5921 393.409L54.5996 393.402C59.5941 388.675 64.2019 383.837 68.6729 379.144C70.8371 376.872 72.9692 374.634 75.0976 372.458C81.6564 365.754 88.2483 359.566 95.89 354.469C107.66 346.736 114.762 333.908 121.376 321.186C121.834 320.304 122.29 319.423 122.745 318.544C128.929 306.594 134.925 295.007 144.123 287.16C145.79 285.776 148.292 285.152 151.574 285.127C154.838 285.102 158.628 285.668 162.649 286.417C164.064 286.682 165.517 286.97 166.977 287.261C169.601 287.782 172.251 288.309 174.766 288.709C178.692 289.332 182.519 289.689 185.768 289.232L185.836 289.222L185.904 289.206L185.961 289.193C187.055 288.934 188.282 288.643 189.377 288.201C190.489 287.753 191.622 287.089 192.411 285.982C204.426 270.503 223.447 266.258 243.236 269.211C249.034 270.076 255.453 271.872 262.038 276.796C262.174 276.934 262.31 277.031 262.413 277.098C262.552 277.188 262.692 277.259 262.76 277.293L262.76 277.293L262.919 277.418C271.748 284.358 278.504 295.08 282.539 305.905C286.59 316.775 287.785 327.441 285.846 334.237L285.842 334.25C284.029 340.835 280.386 345.462 276.263 349.925C275.477 350.776 274.667 351.625 273.849 352.484C270.425 356.08 266.843 359.841 264.133 364.548L264.113 364.582L264.095 364.618L264.064 364.678C262.539 367.681 260.939 370.833 259.959 374.324C257.05 383.321 256.474 393.267 256.781 403.19C256.991 409.94 257.616 416.774 258.214 423.321C258.494 426.381 258.768 429.378 258.991 432.274Z" stroke="white" stroke-width="3" stroke-miterlimit="10"/>
<path d="M270.175 525.95L270.171 525.954C262.023 534.863 249.708 536.467 237.889 535.787C228.835 535.188 219.543 533.051 209.987 530.614C208.285 530.18 206.574 529.736 204.855 529.29C196.967 527.245 188.912 525.155 180.797 523.763C170.9 521.844 162.464 521.469 154.412 522.738L154.409 522.739C137.54 525.433 124.589 535.688 110.025 547.221C108.897 548.115 107.759 549.016 106.609 549.921L106.607 549.923C91.6289 561.753 75.1994 564.027 59.3484 559.903C43.4413 555.764 28.0675 545.161 15.4406 531.158C6.30217 520.862 -2.0432 510.086 -8.06751 498.397L-8.07215 498.388L-8.08142 498.37C-15.9241 483.399 -26.2389 463.709 -32.2423 444.506C-38.2781 425.199 -39.7752 406.941 -30.7264 394.439C-29.1102 392.242 -25.7952 390.866 -21.0404 390.086C-16.3584 389.318 -10.7015 389.186 -4.86167 389.111C-4.32473 389.104 -3.78622 389.098 -3.24697 389.091C2.02432 389.029 7.36672 388.965 12.0088 388.442C17.0487 387.874 21.6704 386.731 24.4759 384.104C30.8641 378.177 36.6761 371.977 42.3569 365.916C44.8387 363.268 47.2955 360.647 49.7644 358.087C57.921 349.63 66.285 341.755 76.3896 335.398C90.9256 326.401 98.9989 310.31 106.398 294.158C107.03 292.778 107.658 291.396 108.284 290.018C115.065 275.097 121.676 260.549 132.511 250.827L132.514 250.824C134.402 249.119 137.419 248.467 141.503 248.678C145.548 248.887 150.307 249.923 155.355 251.222C157.234 251.706 159.164 252.229 161.101 252.754C164.295 253.62 167.511 254.493 170.561 255.204C175.47 256.348 180.209 257.143 184.154 256.858L184.197 256.855L184.24 256.85C187.358 256.441 190.187 255.866 192.199 253.421L192.212 253.406L192.224 253.39C207.192 234.181 230.685 229.278 254.694 233.293L254.707 233.295L254.72 233.297C261.783 234.351 269.662 236.577 278.004 242.843C278.303 243.188 278.609 243.394 278.821 243.525C278.869 243.555 278.902 243.575 278.925 243.589L278.942 243.611L279.099 243.735C290.281 252.561 298.826 265.964 303.944 279.411C309.079 292.906 310.651 306.14 308.244 314.611L308.241 314.622C305.96 322.88 301.338 328.615 296.198 334.167C295.379 335.051 294.544 335.933 293.703 336.822C289.308 341.465 284.74 346.291 281.445 352.515C279.302 356.429 277.574 360.444 276.469 364.799C273.25 375.927 272.753 388.282 273.307 400.591C273.701 409.352 274.634 418.176 275.52 426.553C275.877 429.933 276.227 433.241 276.53 436.441C276.923 440.853 277.524 445.751 278.163 450.954C279.414 461.147 280.809 472.51 281.057 483.671C281.433 500.531 279.142 516.223 270.175 525.95Z" stroke="white" stroke-width="3" stroke-miterlimit="10"/>
<path d="M294.008 441.029L294.009 441.037C294.515 445.983 295.25 451.481 296.033 457.333C297.686 469.698 299.551 483.645 299.916 497.32C300.454 517.477 297.684 536.366 286.581 548.064C276.728 558.253 261.786 559.919 247.222 558.615C236.473 557.55 225.611 554.85 214.532 551.831C212.46 551.266 210.379 550.69 208.291 550.112C199.248 547.608 190.058 545.063 180.768 543.229C169.382 540.866 159.416 540.484 150.275 541.803L150.267 541.804L150.259 541.806C129.323 545.058 113.504 557.729 95.1064 572.466C94.7896 572.72 94.4721 572.974 94.1538 573.229L94.153 573.23C76.0408 587.756 56.2823 590.406 37.2991 585.326C18.253 580.229 -0.0637511 567.329 -15.0364 550.673C-26.0534 538.352 -36.0441 525.356 -43.4654 511.261L-43.4699 511.252C-43.7078 510.807 -43.9478 510.359 -44.1899 509.906C-53.5337 492.438 -65.8726 469.37 -73.3047 446.753C-80.9623 423.449 -83.2104 401.209 -72.3524 386.041C-70.3517 383.377 -66.2204 381.813 -60.3851 381.016C-54.6294 380.229 -47.6735 380.241 -40.5291 380.32C-39.9231 380.327 -39.3157 380.334 -38.7077 380.341C-32.203 380.418 -25.6311 380.496 -19.9492 379.985C-13.8228 379.435 -8.29167 378.175 -5.02181 375.102L-5.01665 375.097C2.28465 368.17 8.92999 360.961 15.4248 353.915C18.7043 350.357 21.9453 346.841 25.2131 343.424C34.9975 333.193 45.1248 323.728 57.5818 316.196L57.59 316.191C74.5564 305.785 83.5328 286.505 91.7088 266.977C92.4552 265.194 93.195 263.409 93.9335 261.628C101.367 243.694 108.662 226.095 121.14 214.314L121.148 214.306C123.277 212.265 126.819 211.575 131.684 212.011C136.493 212.441 142.201 213.933 148.246 215.777C150.766 216.546 153.369 217.384 155.975 218.223C159.526 219.366 163.085 220.512 166.451 221.488C172.306 223.185 177.908 224.475 182.508 224.476C186.658 224.627 189.938 223.673 192.193 221.075L192.22 221.044L192.245 221.013C209.918 198.284 238.298 192.786 266.354 197.621C274.916 199.114 284.279 201.786 294.399 209.426C294.515 209.546 294.625 209.636 294.696 209.691C294.821 209.789 294.956 209.884 295.047 209.947C295.143 210.015 295.203 210.058 295.249 210.093L295.309 210.174L295.467 210.299C308.902 220.883 319.175 237.005 325.371 253.132C331.585 269.309 333.582 285.181 330.824 295.241C328.041 305.392 322.417 312.344 316.239 318.997C315.27 320.041 314.283 321.081 313.29 322.127C308.008 327.691 302.568 333.423 298.712 340.88C296.237 345.447 294.397 350.311 292.999 355.213L292.998 355.218C289.207 368.681 288.834 383.53 289.711 398.274C290.28 407.85 291.386 417.483 292.443 426.687C293.009 431.616 293.561 436.421 294.008 441.029Z" stroke="white" stroke-width="3" stroke-miterlimit="10"/>
<path d="M353.834 275.922L353.831 275.932C350.701 287.667 344.201 295.743 337.034 303.508C335.922 304.714 334.79 305.915 333.651 307.123C327.506 313.642 321.171 320.362 316.654 329.122C313.869 334.301 311.654 340.208 310.126 345.98C305.899 361.666 305.495 378.909 306.563 396.034C307.322 408.193 308.83 420.378 310.261 431.935C310.843 436.637 311.413 441.235 311.913 445.686C312.511 451.23 313.369 457.423 314.285 464.038C316.283 478.459 318.558 494.886 319.018 510.975C319.688 534.465 316.436 556.546 303.229 570.001C291.367 582.066 273.452 583.314 256.531 581.442C244.197 580.034 231.796 576.67 219.204 572.959C217.055 572.326 214.9 571.683 212.74 571.038C202.274 567.913 191.67 564.747 180.969 562.512C168.103 559.707 156.603 559.317 146.114 560.873C121.932 564.405 103.716 579.1 82.1314 596.598C60.7938 613.7 37.657 616.666 15.516 610.599C-6.68989 604.513 -27.946 589.318 -45.2612 570.015C-57.7389 555.722 -69.5543 540.263 -78.3709 523.765C-79.101 522.398 -79.8508 520.998 -80.6174 519.567C-91.2739 499.672 -105.159 473.747 -113.819 448.268C-118.458 434.617 -121.569 421.171 -121.901 408.91C-122.232 396.656 -119.787 385.679 -113.415 376.84L-113.415 376.84L-113.409 376.831C-111.108 373.588 -106.22 371.764 -99.3347 370.905C-92.5453 370.057 -84.3061 370.196 -75.8586 370.429C-75.0536 370.451 -74.2466 370.475 -73.439 370.498C-65.8293 370.715 -58.1671 370.934 -51.5509 370.459C-47.885 370.196 -44.4809 369.717 -41.5419 368.886C-38.6123 368.057 -36.0474 366.851 -34.1528 365.067C-25.4919 356.969 -17.6458 348.409 -9.93998 340.002C-6.30145 336.032 -2.69419 332.096 0.952821 328.26C12.3694 316.249 24.2758 305.09 39.0846 296.384L39.0881 296.381C58.7919 284.726 68.7963 262.168 77.7885 239.187C78.6936 236.874 79.5884 234.556 80.4818 232.241C84.057 222.979 87.6098 213.776 91.7095 205.177C96.8259 194.445 102.741 184.778 110.481 177.278C112.884 175.038 116.984 174.414 122.644 175.144C128.232 175.865 134.89 177.845 141.936 180.235C144.866 181.229 147.883 182.301 150.904 183.374C155.061 184.852 159.224 186.331 163.177 187.612C170.025 189.832 176.547 191.564 181.876 191.79C186.299 192.003 190.614 191.271 193.01 188.08C213.389 161.84 245.974 155.869 278.496 161.585C288.532 163.514 299.355 166.624 311.228 175.604C311.511 175.931 311.8 176.133 311.972 176.254L311.995 176.27C312.193 176.408 312.207 176.427 312.23 176.458L312.346 176.616L312.499 176.738C328.071 189.174 340.073 208.019 347.347 226.826C354.64 245.683 357.06 264.186 353.834 275.922Z" stroke="white" stroke-width="3" stroke-miterlimit="10"/>
<path d="M319.446 591.877L319.44 591.882L319.434 591.888C306.045 605.463 285.088 606.706 265.84 604.27C251.818 602.394 237.81 598.408 223.601 594.127C221.884 593.61 220.164 593.088 218.441 592.566C205.937 588.774 193.264 584.931 180.404 582.335C165.849 579.281 153.066 578.694 141.218 580.488C114.158 584.247 93.727 600.581 69.195 620.261L69.1846 620.269C44.8027 640.191 18.2728 643.58 -7.0891 636.569C-32.5202 629.538 -56.8254 612.026 -76.4831 590.072L-76.487 590.067C-91.2661 573.691 -104.717 556.024 -114.678 536.954L-114.681 536.95C-116.149 534.162 -117.696 531.249 -119.301 528.226C-131.05 506.103 -145.9 478.144 -155.493 450.599C-160.942 434.952 -164.665 419.52 -165.178 405.436C-165.69 391.36 -162.993 378.729 -155.713 368.555L-155.709 368.55C-154.445 366.767 -152.424 365.366 -149.664 364.302C-146.903 363.238 -143.494 362.548 -139.589 362.133C-131.77 361.302 -122.245 361.598 -112.492 361.985C-111.72 362.015 -110.946 362.046 -110.172 362.078C-101.224 362.438 -92.2017 362.802 -84.4434 362.324C-80.2225 362.064 -76.316 361.553 -72.9569 360.635C-69.609 359.719 -66.7013 358.373 -64.5775 356.371C-54.5804 347.017 -45.5955 337.117 -36.7761 327.4C-32.6609 322.865 -28.5818 318.371 -24.4527 313.99C-11.4278 300.171 2.1976 287.361 19.3607 277.479L19.3679 277.475C41.7032 264.45 52.6724 238.674 62.4728 212.292C63.48 209.58 64.4748 206.862 65.4683 204.147C69.3393 193.569 73.1904 183.045 77.6747 173.213C83.3038 160.87 89.8767 149.746 98.6032 141.141C101.326 138.494 106.005 137.843 112.452 138.822C118.816 139.789 126.416 142.267 134.459 145.23C137.721 146.431 141.071 147.719 144.428 149.009C149.264 150.867 154.113 152.731 158.728 154.349C166.547 157.09 173.985 159.238 180.065 159.584C185.231 160.12 189.703 159.161 192.564 155.684L192.577 155.669L192.589 155.653C215.926 125.692 253.168 119.312 289.739 125.854C301.103 127.983 313.853 131.611 327.111 141.955L327.225 142.044L327.354 142.109C327.491 142.179 327.615 142.274 327.872 142.486L327.901 142.51C328.106 142.678 328.406 142.926 328.788 143.141C346.563 157.337 360.317 178.815 368.681 200.234C377.083 221.747 379.927 242.881 376.233 256.292L376.23 256.303L376.227 256.314C372.717 269.846 365.279 279.091 357.106 287.935C355.838 289.307 354.548 290.672 353.252 292.044C346.243 299.467 339.047 307.088 333.977 317.071C330.836 323.257 328.306 329.771 326.643 336.429C321.977 354.343 321.651 374.002 322.965 393.513C323.867 406.912 325.552 420.331 327.154 433.095C327.882 438.892 328.593 444.554 329.205 450.018C329.919 456.56 330.971 463.901 332.095 471.75C334.426 488.016 337.07 506.468 337.668 524.539C338.555 551.343 334.881 576.574 319.446 591.877Z" stroke="white" stroke-width="3" stroke-miterlimit="10"/>
<path d="M274.959 626.852L274.969 626.853C296.691 630.095 320.301 628.809 335.904 613.575C353.362 596.388 357.515 567.952 356.496 537.824C355.795 517.097 352.673 495.903 349.946 477.386C348.711 469.004 347.557 461.17 346.745 454.177C346.014 448.019 345.167 441.624 344.298 435.065C342.413 420.839 340.426 405.846 339.308 390.848C337.672 368.909 337.874 346.768 342.983 326.619L342.985 326.611L342.987 326.604C345.007 318.972 347.409 311.777 350.882 304.937C356.562 293.624 364.687 285.007 372.627 276.587C373.996 275.135 375.36 273.689 376.704 272.236C385.89 262.309 394.314 251.952 398.383 236.861C402.34 221.726 399.108 198.011 389.707 173.863C380.341 149.807 364.966 125.624 344.967 109.456C344.587 109.242 344.288 108.995 344.084 108.828L344.055 108.804C343.798 108.592 343.674 108.497 343.537 108.427L343.409 108.362L343.295 108.273C328.269 96.57 314.049 92.5032 301.208 89.936C260.436 82.3341 218.732 89.3564 192.436 123.018C189.45 127.051 184.199 127.602 178.566 127.2L178.558 127.199L178.549 127.198C171.736 126.634 163.359 124.029 154.529 120.748C149.378 118.833 143.973 116.649 138.581 114.469C134.75 112.921 130.925 111.375 127.203 109.931C118.16 106.422 109.625 103.472 102.521 102.258C95.3147 101.027 90.137 101.68 87.2202 104.637L87.2194 104.638C77.6122 114.365 70.4454 126.97 64.3415 140.944C59.558 151.895 55.4612 163.602 51.3467 175.358C50.2064 178.617 49.0646 181.879 47.9066 185.131C37.2978 214.915 25.3168 243.847 0.379621 258.025L0.377618 258.026C-19.1448 269.086 -34.5986 283.535 -49.2772 299.101C-54.0833 304.198 -58.8185 309.429 -63.5895 314.699C-73.34 325.471 -83.2399 336.407 -94.199 346.699C-96.551 348.919 -99.7967 350.404 -103.558 351.401C-107.332 352.402 -111.733 352.94 -116.501 353.192C-125.297 353.655 -135.548 353.148 -145.73 352.644C-146.573 352.602 -147.416 352.561 -148.258 352.52C-159.314 351.979 -170.138 351.539 -179.03 352.386C-183.472 352.809 -187.361 353.547 -190.517 354.72C-193.674 355.892 -196.002 357.462 -197.46 359.486C-205.691 370.934 -208.675 385.198 -208.007 401.102C-207.337 417.013 -203.014 434.463 -196.748 452.147C-185.886 482.799 -169.281 513.904 -156.09 538.616C-154.053 542.431 -152.098 546.094 -150.257 549.579M274.959 626.852L-151.584 550.279M274.959 626.852C259.341 624.63 243.817 620.143 228.105 615.31C225.895 614.631 223.681 613.944 221.463 613.256C207.947 609.063 194.27 604.821 180.371 601.802M274.959 626.852L274.747 628.337C256.781 625.781 238.973 620.257 221.009 614.686C207.486 610.491 193.875 606.27 180.042 603.266M-150.257 549.579L-151.584 550.279M-150.257 549.579C-150.258 549.579 -150.258 549.578 -150.258 549.578L-151.584 550.279M-150.257 549.579C-138.901 571.05 -123.809 590.932 -107.149 609.336L-107.142 609.343C-85.1427 633.946 -57.8971 653.756 -29.3042 661.777C-0.782271 669.778 29.1293 666.073 56.739 643.57L56.7422 643.567C83.8229 621.619 106.882 603.725 136.875 599.311L136.882 599.31C149.825 597.463 164.143 598.057 180.371 601.802M-151.584 550.279C-140.152 571.894 -124.976 591.879 -108.261 610.343C-64.0145 659.825 1.64751 690.406 57.6866 644.732C84.8135 622.747 107.568 605.14 137.094 600.795C149.835 598.977 163.969 599.555 180.042 603.266M180.371 601.802C180.367 601.802 180.363 601.801 180.36 601.8L180.042 603.266M180.371 601.802C180.373 601.803 180.376 601.804 180.379 601.804L180.042 603.266M178.673 125.704C184.301 126.106 188.773 125.461 191.242 122.11C218.017 87.8204 260.412 80.8016 301.492 88.4631L178.673 125.704ZM178.673 125.704C168.237 124.839 153.748 118.982 139.185 113.095M178.673 125.704L139.185 113.095M344.437 326.988C335.933 360.526 341.142 399.833 345.778 434.813C346.649 441.385 347.499 447.804 348.235 454.004C349.037 460.915 350.184 468.699 351.414 477.051C358.108 522.512 367.281 584.798 336.952 614.648L344.437 326.988ZM344.437 326.988C346.443 319.411 348.813 312.327 352.22 305.616L344.437 326.988ZM139.185 113.095C116.958 104.111 94.5619 95.0579 86.1522 103.584L139.185 113.095ZM345.009 107.646C344.765 107.445 344.522 107.245 344.217 107.09L399.833 237.245C407.983 206.083 386.418 140.953 345.801 108.201C345.496 108.046 345.252 107.846 345.009 107.646Z" stroke="white" stroke-width="3" stroke-miterlimit="10"/>
<path d="M284.266 649.68L284.261 649.679C266.959 646.988 249.828 641.879 232.609 636.493C230.713 635.9 228.815 635.303 226.917 634.706C211.608 629.893 196.21 625.051 180.665 621.753C162.743 617.757 147.142 616.968 132.841 619.053C99.9704 623.692 74.5206 642.972 44.6578 667.362C13.6937 692.539 -19.6175 696.664 -51.3044 687.727C-83.0639 678.77 -113.248 656.664 -137.681 629.29C-155.985 608.668 -172.719 586.568 -185.47 562.698C-187.796 558.295 -190.297 553.63 -192.916 548.744C-207.429 521.676 -225.562 487.854 -237.601 454.493C-244.705 434.809 -249.653 415.372 -250.499 397.654C-251.344 379.942 -248.088 364.056 -238.904 351.334L-238.899 351.326C-237.264 349.033 -234.649 347.273 -231.116 345.971C-227.583 344.669 -223.232 343.862 -218.267 343.414C-208.328 342.518 -196.225 343.081 -183.877 343.759C-182.898 343.813 -181.918 343.867 -180.938 343.922C-169.601 344.552 -158.205 345.186 -148.433 344.736C-143.119 344.492 -138.224 343.925 -134.038 342.841C-129.864 341.761 -126.282 340.138 -123.703 337.702C-111.407 326.154 -100.394 313.898 -89.5551 301.834C-84.3227 296.011 -79.1308 290.232 -73.8544 284.6C-57.5984 267.249 -40.4232 251.145 -18.4191 238.818L-18.4154 238.816C9.14504 223.272 22.0913 191.13 33.5087 157.944C34.7616 154.302 35.9962 150.646 37.2296 146.994C41.647 133.914 46.0489 120.879 51.2239 108.688C57.8383 93.1068 65.6609 79.0451 76.2515 68.2117C79.4789 64.9365 85.2333 64.2999 93.2054 65.785C101.069 67.2499 110.526 70.6712 120.542 74.7215C124.723 76.4125 129.02 78.2211 133.323 80.0324C139.239 82.5228 145.168 85.0182 150.825 87.2199C160.613 91.0296 169.885 94.0841 177.425 94.8732C183.796 95.5996 189.477 94.652 192.693 90.4699C221.454 53.4539 267.63 45.7776 312.877 54.2672C326.982 57.0224 342.859 61.768 359.662 74.8371L359.775 74.9254L359.904 74.9905C359.994 75.0365 360.129 75.1449 360.459 75.4435L360.504 75.484C360.731 75.6906 361.09 76.0175 361.512 76.2622C383.676 94.0664 400.795 120.863 411.247 147.546C421.735 174.32 425.391 200.669 420.965 217.48C416.517 234.372 407.153 245.901 396.959 256.908C395.458 258.529 393.935 260.141 392.407 261.759C383.607 271.079 374.624 280.593 368.394 293.123L368.386 293.139L368.378 293.155C364.808 300.798 361.848 308.764 359.688 317.298L359.687 317.305C354.137 339.684 354.012 364.242 355.893 388.569C357.15 404.823 359.313 421.066 361.37 436.512C362.387 444.153 363.379 451.6 364.222 458.756L364.222 458.757C365.133 466.439 366.433 475.072 367.826 484.326C370.908 504.806 374.449 528.332 375.263 551.346C376.444 584.782 371.811 616.421 352.115 635.458L352.109 635.464C334.974 652.209 308.317 653.487 284.266 649.68Z" stroke="white" stroke-width="3" stroke-miterlimit="10"/>
<path d="M293.571 672.508L293.56 672.507C274.575 669.348 255.903 663.571 237.109 657.539C235.506 657.025 233.901 656.508 232.296 655.991C215.115 650.46 197.805 644.887 180.169 641.15C160.538 636.899 143.415 636.102 128.022 638.238C92.0802 642.855 64.4109 663.783 31.7777 690.604L31.7766 690.605C-2.10784 718.511 -38.7516 723.014 -73.6302 713.11C-108.583 703.184 -141.814 678.764 -168.587 648.742L-168.588 648.742C-188.6 626.328 -207.213 602.2 -221.289 575.514L-221.29 575.513C-223.973 570.437 -226.876 565.035 -229.923 559.365C-245.803 529.813 -265.615 492.944 -278.873 456.534C-286.771 434.845 -292.308 413.405 -293.317 393.85C-294.326 374.302 -290.805 356.749 -280.711 342.688C-278.88 340.153 -275.957 338.225 -272.028 336.815C-268.099 335.405 -263.268 334.55 -257.766 334.094C-246.755 333.182 -233.353 333.89 -219.701 334.722C-218.652 334.786 -217.602 334.851 -216.551 334.916C-203.982 335.69 -191.358 336.467 -180.55 336.031C-174.689 335.795 -169.299 335.201 -164.699 334.035C-160.113 332.872 -156.196 331.112 -153.391 328.461C-139.654 315.685 -127.393 302.034 -115.306 288.577C-109.696 282.331 -104.123 276.127 -98.458 270.071C-80.5379 250.917 -61.5796 233.114 -37.2166 219.609C-6.93833 202.823 6.97416 167.47 19.1774 130.851C20.5357 126.775 21.8729 122.682 23.2091 118.592C27.9063 104.214 32.59 89.8772 38.1304 76.4688C45.2418 59.2586 53.7095 43.7243 65.2846 31.784L65.2906 31.7778C68.7839 28.1326 75.1107 27.4847 83.8827 29.2157C92.5342 30.9227 102.966 34.823 114.007 39.4231C118.638 41.3523 123.394 43.4129 128.155 45.4756C134.658 48.293 141.171 51.1144 147.384 53.6103C158.167 57.9416 168.351 61.4221 176.581 62.3692C183.791 63.222 189.884 62.3487 193.603 57.8295L193.616 57.814L193.628 57.798C225.348 17.066 276.178 8.98611 325.468 18.2989C340.851 21.2448 358.195 26.4267 376.766 40.8553L376.795 40.8777L376.825 40.8987C377.136 41.1172 377.364 41.3219 377.653 41.5841L377.667 41.5968C377.945 41.8482 378.279 42.1513 378.73 42.4719C403.058 62.1262 421.929 91.6692 433.468 121.055C445.034 150.509 449.115 179.49 444.221 197.977C439.304 216.552 428.998 229.254 417.817 241.372C416.193 243.132 414.549 244.881 412.899 246.636C403.235 256.917 393.392 267.386 386.591 281.166C382.253 289.404 379.165 298.25 376.884 307.619C370.677 332.201 370.568 359.224 372.717 385.97C374.163 403.965 376.642 421.927 378.993 438.962C380.132 447.215 381.241 455.25 382.188 462.966C383.186 471.58 384.644 481.314 386.21 491.772C389.557 514.116 393.399 539.763 394.304 564.853C395.633 601.706 390.564 636.608 368.754 657.404C349.405 675.801 320.103 677.121 293.571 672.508Z" stroke="white" stroke-width="3" stroke-miterlimit="10"/>
<path d="M302.86 695.334L302.855 695.333C282.187 691.705 261.91 685.307 241.524 678.6C239.439 677.914 237.352 677.225 235.264 676.535C216.969 670.491 198.548 664.406 179.767 660.124L179.759 660.122C158.66 655.433 140.244 654.441 123.492 656.816C84.3721 662.271 54.7413 684.646 19.1527 713.655L19.1485 713.659C-18.0887 744.238 -58.1775 749.102 -96.2464 738.23C-134.391 727.336 -170.561 700.618 -199.675 667.95L-199.678 667.947C-221.565 643.512 -241.576 616.986 -257.05 587.894C-260.087 582.16 -263.385 576.042 -266.853 569.608C-284.187 537.452 -305.78 497.395 -320.309 457.84C-329.024 434.114 -335.163 410.656 -336.329 389.273C-337.494 367.898 -333.687 348.708 -322.64 333.372C-320.611 330.594 -317.381 328.496 -313.062 326.973C-308.742 325.449 -303.437 324.538 -297.406 324.065C-285.336 323.119 -270.653 323.949 -255.709 324.92C-254.512 324.997 -253.312 325.076 -252.113 325.155C-238.399 326.054 -224.645 326.956 -212.862 326.549C-206.45 326.327 -200.56 325.717 -195.536 324.485C-190.524 323.257 -186.256 321.382 -183.202 318.549L-183.194 318.542C-168.59 304.793 -155.517 290.155 -142.626 275.721C-136.27 268.605 -129.959 261.538 -123.531 254.652C-104.011 233.743 -83.2845 214.345 -56.5601 199.662L-56.5585 199.661C-23.7845 181.602 -8.86027 143.108 4.17448 103.115C5.66151 98.5531 7.12398 93.9697 8.58539 89.3897C13.5611 73.7963 18.5243 58.2416 24.4017 43.6845C32.0005 24.8641 41.0719 7.86245 53.527 -5.20243C57.3329 -9.1684 64.2509 -9.78265 73.8057 -7.77441C83.2342 -5.79272 94.6108 -1.39043 106.647 3.78208C111.722 5.96303 116.934 8.28962 122.149 10.6182C129.215 13.7728 136.289 16.9311 143.045 19.7361C154.801 24.6178 165.892 28.5623 174.849 29.7336C182.664 30.8976 189.491 29.9335 193.288 24.9232C227.967 -19.5153 283.261 -28.2388 336.756 -17.8648C353.573 -14.4889 372.336 -8.88711 392.617 6.81154C393.297 7.65702 394.187 8.28061 394.879 8.76581L394.915 8.79121C421.495 30.2032 442.092 62.464 454.709 94.5276C467.353 126.659 471.861 158.276 466.618 178.354L466.618 178.355C461.321 198.731 450.137 212.558 437.98 225.731C436.189 227.671 434.374 229.6 432.553 231.535C422.059 242.688 411.366 254.052 403.921 269.102C399.209 278.381 395.996 288.08 393.409 298.037L393.407 298.049L393.404 298.06C386.847 324.993 386.861 354.494 389.278 383.659C390.873 402.894 393.524 422.077 396.043 440.303C397.338 449.68 398.599 458.803 399.663 467.549C400.757 476.62 402.315 486.849 403.989 497.837C407.734 522.423 412.058 550.815 413.067 578.565C414.529 618.746 408.981 656.856 385.141 679.537L385.14 679.538C364.263 699.445 331.735 700.515 302.86 695.334ZM302.595 696.811C331.572 702.01 364.75 701.054 386.175 680.624L302.595 696.811Z" stroke="white" stroke-width="3" stroke-miterlimit="10"/>
<path d="M312.151 718.161L312.149 718.16C289.797 714.063 267.958 707.103 246.004 699.888C244.338 699.34 242.671 698.791 241.003 698.242C220.725 691.563 200.309 684.838 179.389 680.194L179.382 680.193C156.566 675.247 137.058 674.315 118.794 676.675L118.785 676.676C76.7861 682.356 44.7614 706.121 6.39344 737.569L6.38686 737.575C-33.8953 770.976 -77.3176 776.217 -118.546 764.355C-159.851 752.471 -199.006 723.394 -230.462 688.077L-230.465 688.073C-254.425 661.354 -276.315 632.8 -292.931 601.142L-292.931 601.142C-296.575 594.202 -300.583 586.741 -304.816 578.861C-323.288 544.475 -346.046 502.11 -361.551 460.242C-371.077 434.52 -377.828 409.077 -379.176 385.872C-380.524 362.673 -376.467 341.826 -364.507 325.149C-362.333 322.126 -358.84 319.854 -354.158 318.213C-349.478 316.572 -343.72 315.6 -337.171 315.107C-324.066 314.12 -308.095 315.067 -291.843 316.164C-290.561 316.251 -289.276 316.338 -287.992 316.426C-273.055 317.444 -258.073 318.465 -245.252 318.055C-238.284 317.833 -231.892 317.187 -226.449 315.868C-221.018 314.551 -216.412 312.536 -213.132 309.487L-213.13 309.485C-197.089 294.509 -182.768 278.479 -168.631 262.652C-161.894 255.112 -155.199 247.617 -148.38 240.305C-127.196 217.593 -104.686 196.495 -75.601 180.634C-57.8311 170.97 -44.9941 155.704 -34.8781 137.47C-24.7695 119.249 -17.331 97.9753 -10.4036 76.2085C-8.81479 71.2161 -7.25321 66.1992 -5.6926 61.1854C-0.433668 44.29 4.81464 27.4288 11.061 11.6505C19.1556 -8.79677 28.8709 -27.2707 42.3092 -41.443C44.3287 -43.5552 47.1836 -44.7659 50.8795 -45.1584C54.592 -45.5526 59.0608 -45.1084 64.148 -43.9875C74.326 -41.745 86.633 -36.8761 99.6574 -31.1732C105.16 -28.7638 110.809 -26.1968 116.463 -23.6275C124.106 -20.1549 131.757 -16.6779 139.071 -13.5794C151.816 -8.1794 163.827 -3.79569 173.516 -2.40589L173.53 -2.40373L173.545 -2.4019C181.983 -1.36315 188.989 -2.07161 193.287 -7.42735L193.293 -7.43487L193.299 -7.44246C230.935 -55.6001 290.639 -64.5496 348.43 -53.5323C366.947 -49.9026 387.36 -43.6209 409.231 -26.8048C409.91 -25.9605 410.799 -25.3373 411.491 -24.8525L411.525 -24.8287C440.329 -1.4431 462.609 33.4771 476.257 68.1543C489.931 102.899 494.823 137.092 489.199 158.977C483.556 180.938 471.433 195.936 458.257 210.244C456.334 212.333 454.386 214.409 452.432 216.491C441.041 228.629 429.445 240.985 421.431 257.289L421.427 257.297L421.423 257.305C416.599 267.416 413.077 277.711 410.358 288.546L410.357 288.551C403.142 317.688 403.171 349.656 405.857 381.241C407.641 402.224 410.609 423.133 413.422 442.954C414.84 452.939 416.218 462.648 417.385 471.951C418.579 481.706 420.281 492.728 422.112 504.582C426.212 531.132 430.958 561.862 432.08 591.905C433.704 635.39 427.676 676.706 401.598 701.238L401.592 701.244C378.688 723.033 343.349 723.906 312.151 718.161Z" stroke="white" stroke-width="3" stroke-miterlimit="10"/>
<path d="M321.448 740.988L321.441 740.987C297.405 736.42 273.963 728.838 250.363 721.076C249.398 720.758 248.433 720.441 247.467 720.123C224.851 712.68 202.065 705.18 178.589 700.202C154.107 694.568 132.825 693.814 113.476 696.226L113.466 696.227C68.5843 702.133 34.3442 727.54 -6.79384 761.419L-6.79636 761.422C-50.1833 797.312 -96.9885 802.87 -141.41 790.04C-185.907 777.188 -228.063 745.859 -261.857 707.897C-287.459 678.961 -310.991 648.191 -329.001 614.133L-329.002 614.131C-332.834 606.906 -337.038 599.147 -341.476 590.957C-361.598 553.819 -386.533 507.799 -403.512 462.318C-413.87 434.572 -421.229 407.117 -422.738 382.086C-424.247 357.063 -419.904 334.579 -406.992 316.627C-404.62 313.361 -400.817 310.922 -395.74 309.174C-390.664 307.425 -384.426 306.406 -377.341 305.905C-363.163 304.903 -345.893 305.996 -328.338 307.246C-326.985 307.343 -325.63 307.44 -324.275 307.538C-308.105 308.699 -291.897 309.864 -278.039 309.469C-270.524 309.255 -263.638 308.582 -257.781 307.179C-251.937 305.78 -246.996 303.626 -243.492 300.362L-243.489 300.36C-226.239 284.231 -210.897 266.968 -195.746 249.918C-188.526 241.794 -181.35 233.719 -174.03 225.838C-151.299 201.362 -127.066 178.609 -95.4974 161.478C-76.4196 151.133 -62.6602 134.731 -51.8409 115.105C-41.0293 95.4943 -33.1065 72.5765 -25.7477 49.1096C-24.0168 43.59 -22.3175 38.0417 -20.6194 32.4969C-15.0824 14.418 -9.5567 -3.62436 -2.98218 -20.5172C5.60364 -42.5779 15.9225 -62.5201 30.2412 -77.8178C32.4303 -80.1461 35.5244 -81.4685 39.5161 -81.8902C43.5252 -82.3137 48.349 -81.8159 53.835 -80.5779C64.8105 -78.101 78.0833 -72.7475 92.1178 -66.4836C98.099 -63.8141 104.239 -60.9696 110.381 -58.1239C118.561 -54.3342 126.746 -50.5422 134.567 -47.1585C148.285 -41.224 161.189 -36.4041 171.567 -34.8555C180.697 -33.4931 188.152 -34.5926 192.683 -40.098L192.696 -40.1136L192.708 -40.1295C232.814 -91.6361 297.234 -101.412 359.24 -89.3284L359.244 -89.3277C379.513 -85.4343 401.437 -78.6961 424.881 -60.2603L424.913 -60.235L424.947 -60.2115C425.311 -59.956 425.725 -59.6381 426.173 -59.2934L426.193 -59.2783C426.608 -58.9598 427.052 -58.6182 427.462 -58.3287C458.519 -33.1853 482.526 4.45357 497.252 41.8091C512.005 79.2319 517.323 116.06 511.351 139.534L511.351 139.536C505.328 163.298 492.267 179.466 478.083 194.853C476.003 197.11 473.896 199.352 471.783 201.6C459.533 214.637 447.081 227.887 438.517 245.404L438.512 245.415C433.377 256.137 429.48 267.473 426.632 279.173L426.63 279.181C419.19 310.577 419.404 344.975 422.388 378.954C424.331 401.076 427.46 423.117 430.433 444.058C432.022 455.247 433.566 466.121 434.86 476.526L434.86 476.528C436.147 486.741 437.947 498.256 439.883 510.64C444.383 539.427 449.617 572.906 450.844 605.616C452.6 652.43 446.094 696.955 417.985 723.372C393.358 746.443 355.134 747.541 321.448 740.988Z" stroke="white" stroke-width="3" stroke-miterlimit="10"/>
<path d="M330.735 763.814L330.732 763.813C305.017 758.778 280.033 750.529 254.935 742.024C253.28 741.464 251.626 740.902 249.97 740.34C226.536 732.386 202.955 724.382 178.669 718.81L178.662 718.809C152.474 712.92 129.904 711.971 109.195 714.621L109.19 714.622C61.1873 720.936 24.3095 747.912 -19.3616 784.049L-19.3629 784.05C-66.0129 822.737 -116.172 828.776 -163.736 815.039C-211.379 801.28 -256.473 767.654 -292.7 726.921C-320.002 696.202 -345.356 662.972 -364.76 626.515C-368.949 618.618 -373.561 610.117 -378.437 601.129C-399.94 561.494 -426.581 512.386 -444.787 463.841C-455.951 434.073 -463.906 404.608 -465.57 377.753C-467.234 350.904 -462.604 326.783 -448.735 307.552L-448.735 307.551C-446.186 304.014 -442.09 301.387 -436.631 299.515C-431.173 297.644 -424.464 296.566 -416.847 296.052C-401.606 295.024 -383.034 296.27 -364.164 297.689C-362.675 297.801 -361.185 297.914 -359.694 298.028C-342.345 299.344 -324.967 300.662 -310.115 300.301C-302.046 300.105 -294.659 299.413 -288.384 297.934C-282.122 296.458 -276.844 294.17 -273.113 290.69L-273.111 290.688C-254.763 273.51 -238.409 255.119 -222.246 236.943C-214.401 228.12 -206.601 219.349 -198.64 210.79C-174.223 184.543 -148.16 160.149 -114.228 141.84L-114.227 141.84C-93.9025 130.858 -79.2823 113.364 -67.8139 92.3884C-56.3532 71.4272 -47.9924 46.899 -40.233 21.7555C-38.3997 15.815 -36.6005 9.84192 -34.8019 3.87124C-28.973 -15.4795 -23.1517 -34.8046 -16.2058 -52.91C-7.1219 -76.5882 3.83056 -98.0213 19.0905 -114.49C21.4044 -116.954 24.6962 -118.336 28.9537 -118.748C33.2303 -119.163 38.3828 -118.587 44.2439 -117.218C55.9686 -114.48 70.1716 -108.66 85.1939 -101.866C91.6014 -98.9679 98.1777 -95.8832 104.758 -92.7969C113.515 -88.6891 122.279 -84.5784 130.659 -80.901C145.359 -74.4507 159.18 -69.1935 170.287 -67.4246L170.294 -67.4235L170.301 -67.4224C179.788 -66.0067 188.177 -66.9333 192.793 -72.9369C235.86 -128.155 304.751 -138.574 370.965 -125.426L370.978 -125.424C392.523 -121.34 415.91 -114.167 441.117 -94.3792C441.617 -93.9684 442.07 -93.6204 442.503 -93.2875L442.511 -93.2808C442.954 -92.9404 443.377 -92.6153 443.843 -92.2325L443.85 -92.2268C477.059 -65.2322 502.87 -24.9012 518.741 15.1017C534.632 55.1577 540.437 94.5716 533.998 119.722L533.997 119.723C527.506 145.165 513.459 162.443 498.264 178.913C496.141 181.215 493.992 183.503 491.838 185.797C478.625 199.869 465.208 214.157 456.092 233.16L456.086 233.173C450.586 244.918 446.377 256.862 443.398 269.432C435.393 303.15 435.622 340.012 438.852 376.381C440.982 400.365 444.428 424.23 447.697 446.859C449.38 458.511 451.015 469.835 452.399 480.679L452.4 480.682C453.796 491.489 455.734 503.67 457.818 516.771C462.736 547.687 468.47 583.726 469.833 618.925C471.775 669.075 464.789 716.806 434.44 745.075L434.437 745.077C407.782 770.032 366.747 770.932 330.735 763.814ZM459.283 516.423C457.204 503.353 455.274 491.22 453.887 480.489L178.333 720.272C202.542 725.826 226.054 733.807 249.503 741.766C276.253 750.845 302.92 759.896 330.444 765.285C366.569 772.426 408.252 771.646 435.462 746.172C488.039 697.199 471.208 591.389 459.283 516.423ZM535.451 120.094C548.561 68.889 511.717 -38.994 444.796 -93.3907L444.858 269.778C447.812 257.312 451.986 245.465 457.444 233.809C466.453 215.031 479.694 200.926 492.911 186.847C510.446 168.168 527.939 149.535 535.451 120.094Z" stroke="white" stroke-width="3" stroke-miterlimit="10"/>
<path d="M470.056 485.501L470.056 485.506C471.534 496.86 473.574 509.661 475.769 523.436C481.026 556.421 487.173 594.991 488.619 632.667C490.671 686.114 483.206 737.056 450.825 767.209C422.45 793.44 378.782 794.387 340.021 786.64C312.623 781.135 286.036 772.264 259.389 763.281L257.357 762.596C231.418 753.849 205.4 745.076 178.651 739.372C151.003 733.048 127.148 731.905 105.086 734.793L105.082 734.794C54.3879 741.581 15.1185 769.945 -31.3289 808.518C-81.207 849.784 -134.748 856.139 -185.473 841.412C-236.277 826.663 -284.311 790.738 -322.878 747.357L-322.88 747.356C-352.065 714.608 -379.056 679.165 -399.605 640.134L-399.606 640.134C-404.377 631.087 -409.673 621.303 -415.286 610.933C-438.01 568.952 -465.923 517.386 -485.152 466.402C-497.137 434.624 -505.711 403.166 -507.56 374.485C-509.408 345.81 -504.53 320.031 -489.75 299.46L-489.747 299.455C-487.052 295.672 -482.696 292.874 -476.882 290.89C-471.071 288.907 -463.919 287.776 -455.796 287.25C-439.543 286.199 -419.713 287.584 -399.567 289.153C-398 289.275 -396.431 289.398 -394.862 289.521C-376.313 290.977 -357.731 292.436 -341.857 292.089C-333.243 291.901 -325.364 291.181 -318.676 289.618C-312.003 288.059 -306.39 285.633 -302.435 281.939L-302.434 281.937C-282.874 263.605 -265.47 243.959 -248.265 224.538C-239.925 215.124 -231.631 205.762 -223.162 196.629C-197.166 168.594 -169.38 142.545 -133.087 123.058C-111.408 111.456 -95.8694 92.8518 -83.7227 70.4924C-71.5836 48.1471 -62.7842 21.96 -54.6316 -4.90222C-52.6991 -11.2695 -50.8034 -17.6731 -48.9083 -24.0746C-42.7933 -44.7305 -36.6846 -65.3653 -29.3671 -84.6946C-19.7864 -110.002 -8.18873 -132.911 8.05755 -150.489L8.05826 -150.489C10.5098 -153.146 14.006 -154.622 18.5263 -155.049C23.0651 -155.477 28.5377 -154.835 34.7643 -153.339C47.2195 -150.346 62.3256 -144.03 78.3167 -136.667C85.0325 -133.575 91.9205 -130.291 98.8176 -127.002C108.259 -122.499 117.717 -117.989 126.773 -113.953C142.455 -106.966 157.213 -101.268 169.112 -99.3221C179.467 -97.3367 188.054 -98.4661 193.156 -104.796L193.163 -104.805L193.17 -104.814C239.195 -163.749 312.492 -174.392 382.998 -160.603C406.021 -156.08 430.88 -148.466 457.859 -127.314L457.89 -127.289L457.923 -127.266C458.657 -126.751 459.582 -125.991 460.572 -125.177L460.576 -125.173C495.918 -96.3283 523.457 -53.2771 540.405 -10.5972C557.375 32.1367 563.605 74.1833 556.697 101.012L556.695 101.019C549.825 128.262 534.899 146.667 518.728 164.192C516.437 166.675 514.118 169.143 511.793 171.617C497.753 186.557 483.49 201.735 473.73 222.001C467.724 234.135 463.388 246.945 460.285 260.356C451.745 296.184 452.052 335.466 455.55 374.253C457.818 399.404 461.44 424.447 464.88 448.227C466.74 461.081 468.546 473.567 470.056 485.501Z" stroke="white" stroke-width="3" stroke-miterlimit="10"/>
<path d="M-353.968 766.562L-355.087 767.561L-353.968 766.561C-385.035 731.784 -413.849 693.881 -435.974 652.206C-441.115 642.451 -446.847 631.87 -452.933 620.635C-476.972 576.256 -506.53 521.69 -526.969 467.708C-539.772 433.893 -548.957 400.402 -550.975 369.877C-552.993 339.358 -547.839 311.926 -532.105 290.078L-532.102 290.074C-529.24 286.073 -524.599 283.126 -518.406 281.046C-512.215 278.968 -504.593 277.797 -495.939 277.268C-478.625 276.21 -457.488 277.735 -436.023 279.446C-434.44 279.573 -432.855 279.7 -431.27 279.827C-411.417 281.421 -391.523 283.018 -374.547 282.671C-365.377 282.484 -356.995 281.73 -349.888 280.08C-342.796 278.433 -336.846 275.865 -332.667 271.957L-332.665 271.956C-312.006 252.573 -293.589 231.799 -275.372 211.25C-266.408 201.138 -257.492 191.081 -248.381 181.271C-220.699 151.465 -191.083 123.775 -152.427 103.109C-129.44 90.8264 -112.99 71.0697 -100.155 47.3008C-87.3272 23.5468 -78.0606 -4.3076 -69.488 -32.8848C-67.4435 -39.7004 -65.4388 -46.5554 -63.4348 -53.408C-57.0215 -75.3386 -50.6155 -97.2443 -42.932 -117.756C-32.8522 -144.664 -20.6294 -169.009 -3.45936 -187.651L-3.45826 -187.652C-0.299804 -191.088 4.53564 -192.651 10.9652 -192.579C17.3979 -192.507 25.2101 -190.796 34.0103 -187.931C51.4353 -182.257 72.3151 -172.203 93.289 -162.104L93.9113 -161.804C115.03 -151.635 136.214 -141.462 153.764 -135.917C162.536 -133.145 170.517 -131.49 177.195 -131.617C183.891 -131.743 189.481 -133.673 193.129 -138.285L193.132 -138.288C242.053 -200.514 319.825 -211.801 394.544 -196.947L394.551 -196.945C418.848 -192.233 445.358 -183.938 474.107 -161.424L474.109 -161.422C512.64 -131.338 542.617 -85.2515 561.105 -39.3337C579.614 6.63667 586.479 52.1148 579.16 80.9598C571.82 109.885 555.952 129.463 538.794 148.099C536.381 150.721 533.94 153.325 531.492 155.936C516.584 171.843 501.457 187.982 491.125 209.508C471.152 250.971 467.557 299.629 470.287 348.536C472.214 383.043 477.305 417.818 482.068 450.351C484.051 463.901 485.978 477.061 487.595 489.652L487.596 489.655C489.168 501.668 491.344 515.237 493.687 529.855C499.3 564.861 505.876 605.882 507.448 645.951C509.677 702.791 501.777 756.998 467.28 788.912C436.875 817.029 390.394 817.778 349.306 809.465L349.306 809.464C320.319 803.613 292.175 794.182 263.959 784.555C262.671 784.116 261.383 783.676 260.095 783.236C233.188 774.048 206.178 764.826 178.413 758.588L178.413 758.588C129.994 747.733 92.0864 751.206 57.3822 764.845C22.7412 778.459 -8.61158 802.17 -43.9585 831.574C-96.973 875.542 -153.896 882.214 -207.836 866.488C-261.856 850.739 -312.936 812.499 -353.968 766.562Z" stroke="white" stroke-width="3" stroke-miterlimit="10"/>
</g>
</svg>
